<?xml version="1.0" ?><svg id="Layer_1" style="enable-background:new 0 0 50 50;" version="1.1" viewBox="0 0 50 50" xml:space="preserve" xmlns="http://www.w3.org/2000/svg" xmlns:xlink="http://www.w3.org/1999/xlink"><style type="text/css">
	.st0{fill:#F0C4DB;}
	.st1{fill:#FF9D9C;}
	.st2{fill:#9BEAF9;}
	.st3{fill:#E9F4BC;}
	.st4{fill:#505050;}
	.st5{fill:#FEBECC;}
	.st6{fill:#FFFFFF;}
	.st7{fill:#FDE4A1;}
	.st8{fill:#FEE7B5;}
	.st9{fill:#CDF6FC;}
	.st10{fill:#F2C6DD;}
	.st11{opacity:0.1;}
</style><g><path class="st0" d="M18.84,7.44c0,11.6,9.4,21,21,21c3.24,0,6.29-0.75,9.03-2.06V1.12H19.81C19.18,3.12,18.84,5.24,18.84,7.44z"/><g><rect class="st7" height="5.58" width="5.66" x="5.51" y="42.55"/><rect class="st1" height="10.96" width="5.66" x="15.73" y="37.16"/><rect class="st2" height="20.8" width="5.66" x="25.96" y="27.33"/><rect class="st3" height="28.9" width="5.66" x="36.18" y="19.22"/><rect class="st7" height="8.27" width="5.18" x="5.75" y="25.15"/><rect class="st1" height="8.27" width="5.18" x="15.97" y="20.39"/><rect class="st2" height="8.27" width="5.18" x="25.96" y="12.48"/><rect class="st3" height="8.27" width="5.18" x="36.42" y="4.04"/><g><path class="st4" d="M47.88,47.38h-5.22V19.22c0-0.41-0.34-0.75-0.75-0.75h-5.66c-0.41,0-0.75,0.34-0.75,0.75v28.15h-3.06V27.33     c0-0.41-0.34-0.75-0.75-0.75h-5.66c-0.41,0-0.75,0.34-0.75,0.75v20.05h-3.06V37.16c0-0.41-0.34-0.75-0.75-0.75h-5.66     c-0.41,0-0.75,0.34-0.75,0.75v10.21h-3.06v-4.83c0-0.41-0.34-0.75-0.75-0.75H5.58c-0.41,0-0.75,0.34-0.75,0.75v4.83H2.63V2.13     c0-0.41-0.34-0.75-0.75-0.75S1.13,1.71,1.13,2.13v46c0,0.41,0.34,0.75,0.75,0.75h46c0.41,0,0.75-0.34,0.75-0.75     S48.29,47.38,47.88,47.38z M6.33,47.38V43.3h4.16v4.08H6.33z M16.56,47.38v-9.46h4.16v9.46H16.56z M26.78,47.38v-19.3h4.16v19.3     H26.78z M37,47.38v-27.4h4.16v27.4H37z"/><path class="st4" d="M5.82,34.18h1.84v1.17c0,0.41,0.34,0.75,0.75,0.75s0.75-0.34,0.75-0.75v-1.17H11c0.41,0,0.75-0.34,0.75-0.75     v-8.27c0-0.41-0.34-0.75-0.75-0.75H9.16v-1.17c0-0.41-0.34-0.75-0.75-0.75s-0.75,0.34-0.75,0.75v1.17H5.82     c-0.41,0-0.75,0.34-0.75,0.75v8.27C5.07,33.84,5.41,34.18,5.82,34.18z M6.57,25.9h3.68v6.77H6.57V25.9z"/><path class="st4" d="M16.05,29.42h1.84v1.17c0,0.41,0.34,0.75,0.75,0.75s0.75-0.34,0.75-0.75v-1.17h1.84     c0.41,0,0.75-0.34,0.75-0.75V20.4c0-0.41-0.34-0.75-0.75-0.75h-1.84v-1.17c0-0.41-0.34-0.75-0.75-0.75s-0.75,0.34-0.75,0.75v1.17     h-1.84c-0.41,0-0.75,0.34-0.75,0.75v8.27C15.3,29.08,15.63,29.42,16.05,29.42z M16.8,21.15h3.68v6.77H16.8V21.15z"/><path class="st4" d="M26.03,21.5h1.84v1.17c0,0.41,0.34,0.75,0.75,0.75s0.75-0.34,0.75-0.75V21.5h1.84     c0.41,0,0.75-0.34,0.75-0.75v-8.27c0-0.41-0.34-0.75-0.75-0.75h-1.84v-1.17c0-0.41-0.34-0.75-0.75-0.75s-0.75,0.34-0.75,0.75     v1.17h-1.84c-0.41,0-0.75,0.34-0.75,0.75v8.27C25.28,21.17,25.61,21.5,26.03,21.5z M26.78,13.23h3.68V20h-3.68V13.23z"/><path class="st4" d="M36.49,13.07h1.84v1.17c0,0.41,0.34,0.75,0.75,0.75s0.75-0.34,0.75-0.75v-1.17h1.84     c0.41,0,0.75-0.34,0.75-0.75V4.04c0-0.41-0.34-0.75-0.75-0.75h-1.84V2.13c0-0.41-0.34-0.75-0.75-0.75s-0.75,0.34-0.75,0.75v1.17     h-1.84c-0.41,0-0.75,0.34-0.75,0.75v8.27C35.74,12.73,36.07,13.07,36.49,13.07z M37.24,4.79h3.68v6.77h-3.68V4.79z"/></g></g></g></svg>