<?xml version="1.0" encoding="utf-8"?>
<!-- Generator: Adobe Illustrator 21.1.0, SVG Export Plug-In . SVG Version: 6.00 Build 0)  -->
<svg version="1.1" id="Lager_1" xmlns="http://www.w3.org/2000/svg" xmlns:xlink="http://www.w3.org/1999/xlink" x="0px" y="0px"
	 viewBox="0 0 1301.9 426" style="enable-background:new 0 0 1301.9 426;" xml:space="preserve">
<style type="text/css">
	.st0{fill:#FFFFFF;}
</style>
<g>
	<g>
		<path class="st0" d="M985.9,141.6c-41.4,0-72.6,30.4-72.6,70.6c0,20,7.4,38,20.7,50.6c13.9,13.1,33.2,20,55.9,20
			c24.4,0,43-7.1,57.1-21.7l-22.6-22.6c-7.7,6.4-18,12.8-35.3,12.8c-19.4,0-32-8.8-36.3-25.4l-0.3-1.2h104.2
			c1.5-25-5.5-47.2-19.8-62.5C1024.2,148.7,1006.6,141.6,985.9,141.6z M1017,198.8h-64.1l0.3-1.2c4.1-15.9,15.7-24.6,32.8-24.6
			c16.4,0,27.7,9,30.8,24.7L1017,198.8z"/>
	</g>
</g>
<g>
	<g>
		<path class="st0" d="M828.5,141.6c-41.4,0-72.6,30.4-72.6,70.6c0,20,7.4,38,20.7,50.6c13.9,13.1,33.2,20,55.9,20
			c24.4,0,43-7.1,57.1-21.7L867,238.6c-7.7,6.4-18,12.8-35.3,12.8c-19.4,0-32-8.8-36.3-25.4l-0.3-1.2h104.2
			c1.5-25-5.5-47.2-19.8-62.4C866.7,148.7,849.1,141.6,828.5,141.6z M859.5,198.8h-64.1l0.3-1.2c4.1-15.9,15.7-24.6,32.8-24.6
			c16.4,0,27.7,9,30.8,24.7L859.5,198.8z"/>
	</g>
</g>
<g>
	<g>
		<path class="st0" d="M515.4,141.6c-41.8,0-73.4,30.4-73.4,70.6c0,40.3,31.6,70.6,73.4,70.6c41.9,0,73.4-30.4,73.4-70.6
			C588.8,171.9,557.2,141.6,515.4,141.6z M515.4,250.9c-20.6,0-34.4-15.6-34.4-38.8s13.8-38.8,34.4-38.8c20.6,0,34.4,15.6,34.4,38.8
			C549.8,235.4,536,250.9,515.4,250.9z"/>
	</g>
</g>
<g>
	<g>
		<path class="st0" d="M357.1,141.6c-41.4,0-72.6,30.4-72.6,70.6c0,20,7.4,38,20.7,50.6c13.9,13.1,33.2,20,55.9,20
			c24.4,0,43-7.1,57.1-21.7l-22.6-22.6c-7.7,6.4-18,12.8-35.3,12.8c-19.4,0-32-8.8-36.3-25.4l-0.3-1.2h104.2
			c1.5-25-5.5-47.2-19.8-62.5C395.3,148.7,377.7,141.6,357.1,141.6z M388.1,198.8H324l0.3-1.2c4.1-15.9,15.7-24.6,32.8-24.6
			c16.4,0,27.7,9,30.8,24.6L388.1,198.8z"/>
	</g>
</g>
<g>
	<g>
		<path class="st0" d="M147.9,145.1l72.7,134.3l70-134.3h-36.9l-31.5,66.2l-32.7-66.2L147.9,145.1L147.9,145.1z"/>
	</g>
</g>
<g>
	<g>
		<path class="st0" d="M704.4,278.6h35.5v-71.3c0-35.6-30.9-65.6-67.6-65.6c-36.6,0-67.6,30.1-67.6,65.6v71.3H640v-71.8
			c0.3-17.7,15.1-32.6,32.2-32.6c0.3,0,1.3,0,1.6,0.1c16.5,1,30.2,15.6,30.5,32.5L704.4,278.6z"/>
	</g>
</g>
<g>
	<g>
		<path class="st0" d="M1071.8,278.6h35.3v-71.3c0.2-18.7,15.6-33.9,34.3-34.1h0.2c0.1,0,0.2,0,0.3,0h11.7v-31.6h-16.1
			c-36.2,0-65.7,29.4-65.7,65.6L1071.8,278.6z"/>
	</g>
</g>
</svg>
