<?xml version="1.0" ?><svg id="Line" style="enable-background:new 0 0 128 128;" version="1.1" viewBox="0 0 128 128" xml:space="preserve" xmlns="http://www.w3.org/2000/svg" xmlns:xlink="http://www.w3.org/1999/xlink"><g><path d="M48,98c0,1.654,1.346,3,3,3h26c1.654,0,3-1.346,3-3v-7.382c0.615-0.703,1-1.612,1-2.618c0-2.206-1.794-4-4-4H51   c-2.206,0-4,1.794-4,4c0,1.005,0.385,1.914,1,2.618V98z M77,99H51c-0.552,0-1-0.449-1-1v-6.142C50.322,91.942,50.653,92,51,92h1v3   c0,1.103,0.897,2,2,2h20c1.103,0,2-0.897,2-2v-3h1c0.347,0,0.678-0.058,1-0.142V98C78,98.551,77.552,99,77,99z M74,92v3H54v-3H74z    M51,86h26c1.103,0,2,0.897,2,2s-0.897,2-2,2H51c-1.103,0-2-0.897-2-2S49.897,86,51,86z"/><path d="M103,61h-7.026C96.609,60.162,97,59.13,97,58V17h1c1.654,0,3-1.346,3-3V4c0-1.654-1.346-3-3-3H30c-1.654,0-3,1.346-3,3v10   c0,1.654,1.346,3,3,3h1v41c0,1.13,0.391,2.162,1.026,3H25c-1.654,0-3,1.346-3,3v12c0,1.654,1.346,3,3,3h1v41c0,3.925,3.075,7,7,7   h62c3.925,0,7-3.075,7-7V79h1c1.654,0,3-1.346,3-3V64C106,62.346,104.654,61,103,61z M29,14V4c0-0.551,0.448-1,1-1h68   c0.552,0,1,0.449,1,1v10c0,0.551-0.448,1-1,1H30C29.448,15,29,14.551,29,14z M33,58V17h62v41c0,1.626-1.374,3-3,3H36   C34.374,61,33,59.626,33,58z M100,120c0,2.804-2.196,5-5,5H33c-2.804,0-5-2.196-5-5V79h72V120z M104,76c0,0.551-0.448,1-1,1H25   c-0.552,0-1-0.449-1-1V64c0-0.551,0.448-1,1-1h78c0.552,0,1,0.449,1,1V76z"/><path d="M75,21H53c-2.206,0-4,1.794-4,4c0,1.005,0.385,1.914,1,2.618V35c0,1.654,1.346,3,3,3h22c1.654,0,3-1.346,3-3v-7.382   c0.615-0.703,1-1.612,1-2.618C79,22.794,77.206,21,75,21z M53,23h22c1.103,0,2,0.897,2,2c0,0.597-0.268,1.127-0.684,1.494   c-0.009,0.009-0.02,0.015-0.029,0.024C75.938,26.814,75.493,27,75,27H53c-0.493,0-0.938-0.186-1.287-0.482   c-0.009-0.009-0.02-0.015-0.029-0.024C51.268,26.127,51,25.597,51,25C51,23.897,51.897,23,53,23z M56,29h16v3H56V29z M75,36H53   c-0.552,0-1-0.449-1-1v-6.142C52.322,28.942,52.653,29,53,29h1v3c0,1.103,0.897,2,2,2h16c1.103,0,2-0.897,2-2v-3h1   c0.347,0,0.678-0.058,1-0.142V35C76,35.551,75.552,36,75,36z"/></g></svg>