<?xml version="1.0" ?><svg viewBox="0 0 64 64" xmlns="http://www.w3.org/2000/svg"><g id="Flat"><g id="Color"><ellipse cx="32" cy="53.5" fill="#fccd1d" rx="29" ry="7.5"/><ellipse cx="32" cy="53.5" fill="#f9a215" rx="20" ry="3.5"/><path d="M54,25A22,22,0,1,0,22.86,45l7.82,7.84a2,2,0,0,0,2.64,0L41.14,45A22,22,0,0,0,54,25Z" fill="#dd051d"/><circle cx="32" cy="25" fill="#fff" r="18"/><polygon fill="#fccd1d" points="36 16 28 16 29.78 12.5 34.22 12.5 36 16"/><path d="M44.45,23.17l-3,2A1,1,0,0,0,42,27a.94.94,0,0,0,.55-.17l3-2a1,1,0,1,0-1.1-1.66Z" fill="#fccd1d"/><path d="M19.55,23.17a1,1,0,1,0-1.1,1.66l3,2A.94.94,0,0,0,22,27a1,1,0,0,0,.55-1.83Z" fill="#fccd1d"/><path d="M21,26l4.33-8.56A2.26,2.26,0,0,1,27.4,16h9.11a2.26,2.26,0,0,1,2.06,1.44L43,26v6H21Z" fill="#e6e7e8"/><path d="M23,32h4a0,0,0,0,1,0,0v1.27A1.73,1.73,0,0,1,25.27,35h-.54A1.73,1.73,0,0,1,23,33.27V32A0,0,0,0,1,23,32Z" fill="#111315"/><path d="M37,32h4a0,0,0,0,1,0,0v1.27A1.73,1.73,0,0,1,39.27,35h-.54A1.73,1.73,0,0,1,37,33.27V32a0,0,0,0,1,0,0Z" fill="#111315"/><path d="M22.16,25H41.84A2.16,2.16,0,0,1,44,27.16V32a0,0,0,0,1,0,0H20a0,0,0,0,1,0,0V27.16A2.16,2.16,0,0,1,22.16,25Z" fill="#212529"/><circle cx="25" cy="28.5" fill="#e6e7e8" r="1"/><circle cx="39" cy="28.5" fill="#e6e7e8" r="1"/></g></g></svg>